<svg width="277" height="142" viewBox="0 0 277 142" fill="none" xmlns="http://www.w3.org/2000/svg">
<path d="M28.2 30.75C28.7333 30.75 29.15 30.9167 29.45 31.25C29.7833 31.55 30.1833 32.1667 30.65 33.1L35.25 42.3C35.4167 42.6333 35.6167 42.8333 35.85 42.9C36.1167 42.9667 36.3667 43 36.6 43H36.85C37.1167 43 37.3667 42.9 37.6 42.7C37.8333 42.4667 37.9667 42.2167 38 41.95L39.25 36.25C39.3833 35.6167 39.45 34.8 39.45 33.8C39.4833 32.8 39.5 31.9333 39.5 31.2V16.5H40V31.25C40 31.9833 39.9833 32.85 39.95 33.85C39.95 34.85 39.8833 35.6667 39.75 36.3L38.5 41.95C38.3667 42.4833 38.15 42.8833 37.85 43.15C37.5833 43.3833 37.25 43.5 36.85 43.5H36.5C36.2 43.5 35.8833 43.45 35.55 43.35C35.25 43.2167 35.0167 42.9833 34.85 42.65L30.25 33.35C29.8167 32.4833 29.4667 31.9167 29.2 31.65C28.9333 31.3833 28.6 31.25 28.2 31.25H26.95C26.55 31.25 26.2167 31.3833 25.95 31.65C25.6833 31.9167 25.3333 32.4833 24.9 33.35L20.3 42.65C20.1333 42.9833 19.8833 43.2167 19.55 43.35C19.25 43.45 18.95 43.5 18.65 43.5H18.3C17.9 43.5 17.55 43.3833 17.25 43.15C16.9833 42.8833 16.7833 42.4833 16.65 41.95L15.4 36.3C15.2667 35.6667 15.1833 34.85 15.15 33.85C15.15 32.85 15.15 31.9833 15.15 31.25V16.5H15.65V31.2C15.65 31.9333 15.65 32.8 15.65 33.8C15.6833 34.8 15.7667 35.6167 15.9 36.25L17.15 41.95C17.1833 42.2167 17.3167 42.4667 17.55 42.7C17.7833 42.9 18.0333 43 18.3 43H18.55C18.7833 43 19.0167 42.9667 19.25 42.9C19.5167 42.8333 19.7333 42.6333 19.9 42.3L24.5 33.1C24.9667 32.1667 25.35 31.55 25.65 31.25C25.9833 30.9167 26.4167 30.75 26.95 30.75H28.2ZM36.05 12C35.4167 12 34.95 12.15 34.65 12.45C34.3833 12.7167 34.25 13.1667 34.25 13.8V32.2L31.35 25.9C31.0833 25.3333 30.7333 24.9333 30.3 24.7C29.8667 24.4667 29.3333 24.35 28.7 24.35H26.6C25.9667 24.35 25.4333 24.4667 25 24.7C24.5667 24.9333 24.2167 25.3333 23.95 25.9L21.05 32.2V13.8C21.05 13.1667 20.9 12.7167 20.6 12.45C20.3333 12.15 19.8833 12 19.25 12H11.55C10.9167 12 10.45 12.15 10.15 12.45C9.88333 12.7167 9.75 13.1667 9.75 13.8V33.1C9.75 34.1667 9.78333 35.1667 9.85 36.1C9.95 37 10.2167 38.0667 10.65 39.3L13.15 46.2C13.3167 46.7333 13.5833 47.1667 13.95 47.5C14.35 47.8333 14.8167 48 15.35 48H21.95C22.4833 48 22.9333 47.8833 23.3 47.65C23.6667 47.3833 23.9167 47 24.05 46.5L26.4 38.35C26.5 38.0167 26.6167 37.8 26.75 37.7C26.9167 37.5667 27.1 37.5 27.3 37.5H27.75C27.95 37.5 28.1167 37.5667 28.25 37.7C28.4167 37.8 28.55 38.0167 28.65 38.35L30.95 46.5C31.0833 47.0333 31.3667 47.4167 31.8 47.65C32.2333 47.8833 32.7167 48 33.25 48H39.9C40.4333 48 40.85 47.8333 41.15 47.5C41.4833 47.1333 41.7333 46.7 41.9 46.2L44.4 39.4C44.8333 38.1667 45.0833 37.1 45.15 36.2C45.25 35.2667 45.3 34.2667 45.3 33.2V13.8C45.3 13.1667 45.15 12.7167 44.85 12.45C44.5833 12.15 44.1333 12 43.5 12H36.05ZM17.25 53.35C17.0167 53.5167 16.75 53.65 16.45 53.75C16.15 53.8833 15.8333 53.95 15.5 53.95H8.9C8.26667 53.95 7.71667 53.75 7.25 53.35C6.78333 52.95 6.45 52.4333 6.25 51.8L3.75 44.9C3.28333 43.6667 3 42.5833 2.9 41.65C2.83333 40.6833 2.8 39.65 2.8 38.55V19.25C2.8 18.8167 2.85 18.45 2.95 18.15C3.08333 17.85 3.26667 17.6 3.5 17.4L9.95 11.95C10.1167 11.8167 10.3333 11.7167 10.6 11.65C10.9 11.55 11.2167 11.5 11.55 11.5H19.25C20.05 11.5 20.6333 11.6833 21 12.05C21.3667 12.4167 21.55 13 21.55 13.8V26.85L24.35 24.5C24.6167 24.2667 24.9333 24.1 25.3 24C25.7 23.9 26.1333 23.85 26.6 23.85H27.3V19.25C27.3 18.8167 27.35 18.45 27.45 18.15C27.55 17.85 27.7 17.6167 27.9 17.45L27.95 17.4L34.45 11.95C34.6167 11.8167 34.8333 11.7167 35.1 11.65C35.3667 11.55 35.6833 11.5 36.05 11.5H43.5C44.3 11.5 44.8833 11.6833 45.25 12.05C45.6167 12.4167 45.8 13 45.8 13.8V33.2C45.8 34.3 45.75 35.3333 45.65 36.3C45.5833 37.2333 45.3167 38.3167 44.85 39.55L42.35 46.35C42.25 46.6833 42.1167 46.9833 41.95 47.25C41.7833 47.5167 41.5833 47.7667 41.35 48L34.9 53.35C34.7 53.55 34.4833 53.7 34.25 53.8C34.0167 53.9 33.75 53.95 33.45 53.95H26.8C26.1333 53.95 25.55 53.8 25.05 53.5C24.55 53.2 24.2 52.7333 24 52.1L23 48.55L17.25 53.35ZM62.1332 43.5V16.5H62.6332V29.75H81.8332V16.5H82.3332V43.5H81.8332V30.25H62.6332V43.5H62.1332ZM66.2832 48C66.9165 48 67.3665 47.8667 67.6332 47.6C67.9332 47.3 68.0832 46.8333 68.0832 46.2V35.1H76.4332V46.2C76.4332 46.8333 76.5665 47.3 76.8332 47.6C77.1332 47.8667 77.5999 48 78.2332 48H85.9832C86.6165 48 87.0665 47.8667 87.3332 47.6C87.6332 47.3 87.7832 46.8333 87.7832 46.2V13.8C87.7832 13.1667 87.6332 12.7167 87.3332 12.45C87.0665 12.15 86.6165 12 85.9832 12H78.2332C77.5999 12 77.1332 12.15 76.8332 12.45C76.5665 12.7167 76.4332 13.1667 76.4332 13.8V24.65H68.0832V13.8C68.0832 13.1667 67.9332 12.7167 67.6332 12.45C67.3665 12.15 66.9165 12 66.2832 12H58.5332C57.8999 12 57.4332 12.15 57.1332 12.45C56.8665 12.7167 56.7332 13.1667 56.7332 13.8V46.2C56.7332 46.8333 56.8665 47.3 57.1332 47.6C57.4332 47.8667 57.8999 48 58.5332 48H66.2832ZM67.8832 48.05L61.3832 53.45C61.2499 53.5833 61.0332 53.7 60.7332 53.8C60.4665 53.9 60.1665 53.95 59.8332 53.95H52.0832C51.2832 53.95 50.6999 53.7667 50.3332 53.4C49.9665 53.0333 49.7832 52.45 49.7832 51.65V19.25C49.7832 18.8167 49.8332 18.45 49.9332 18.15C50.0665 17.85 50.2499 17.6 50.4832 17.4L56.9332 11.95C57.0999 11.8167 57.3165 11.7167 57.5832 11.65C57.8832 11.55 58.1999 11.5 58.5332 11.5H66.2832C67.0832 11.5 67.6665 11.6833 68.0332 12.05C68.3999 12.4167 68.5832 13 68.5832 13.8V24.15H69.4832V19.25C69.4832 18.8167 69.5332 18.45 69.6332 18.15C69.7665 17.85 69.9499 17.6 70.1832 17.4L76.6332 11.95C76.7999 11.8167 77.0165 11.7167 77.2832 11.65C77.5832 11.55 77.8999 11.5 78.2332 11.5H85.9832C86.7832 11.5 87.3665 11.6833 87.7332 12.05C88.0999 12.4167 88.2832 13 88.2832 13.8V46.2C88.2832 46.6333 88.2165 47 88.0832 47.3C87.9832 47.6 87.8165 47.85 87.5832 48.05L81.0832 53.45C80.9499 53.5833 80.7332 53.7 80.4332 53.8C80.1665 53.9 79.8665 53.95 79.5332 53.95H71.7832C70.9832 53.95 70.3999 53.7667 70.0332 53.4C69.6665 53.0333 69.4832 52.45 69.4832 51.65V41.05H68.5832V46.2C68.5832 46.6333 68.5165 47 68.3832 47.3C68.2832 47.6 68.1165 47.85 67.8832 48.05ZM104.752 32.85V34.4H124.252V32.85C124.252 31.95 124.169 31.1167 124.002 30.35C123.869 29.5833 123.685 28.8667 123.452 28.2L120.002 20.05C119.635 19.1833 119.252 18.4667 118.852 17.9C118.452 17.3 117.785 17 116.852 17H111.952C110.952 17 110.252 17.3 109.852 17.9C109.452 18.4667 109.085 19.1667 108.752 20L105.552 28.2C105.319 28.8667 105.119 29.5833 104.952 30.35C104.819 31.1167 104.752 31.95 104.752 32.85ZM112.752 22.5C112.885 22.2 113.019 21.9833 113.152 21.85C113.319 21.7167 113.502 21.65 113.702 21.65H114.952C115.152 21.65 115.319 21.7167 115.452 21.85C115.619 21.9833 115.769 22.2 115.902 22.5L118.252 30.1H110.402L112.752 22.5ZM124.252 43.5V34.9H104.752V43.5H104.252V32.85C104.252 31.9167 104.319 31.0667 104.452 30.3C104.619 29.5 104.835 28.7333 105.102 28L108.302 19.8C108.669 18.8667 109.085 18.0833 109.552 17.45C110.019 16.8167 110.819 16.5 111.952 16.5H116.852C117.952 16.5 118.719 16.8167 119.152 17.45C119.619 18.0833 120.052 18.8833 120.452 19.85L123.902 28C124.169 28.7333 124.369 29.5 124.502 30.3C124.669 31.0667 124.752 31.9167 124.752 32.85V43.5H124.252ZM109.902 46.2V39.2H118.752V46.2C118.752 46.8333 118.902 47.3 119.202 47.6C119.535 47.8667 120.035 48 120.702 48H128.252C128.885 48 129.335 47.8667 129.602 47.6C129.902 47.3 130.052 46.8333 130.052 46.2V33C130.052 32 129.885 30.85 129.552 29.55C129.252 28.25 128.769 26.7333 128.102 25L123.752 13.65C123.552 13.0833 123.235 12.6667 122.802 12.4C122.402 12.1333 121.885 12 121.252 12H107.802C107.135 12 106.585 12.1333 106.152 12.4C105.752 12.6667 105.452 13.0833 105.252 13.65L100.902 25C100.235 26.7333 99.7353 28.25 99.402 29.55C99.102 30.85 98.952 32 98.952 33V46.2C98.952 46.8333 99.0853 47.3 99.352 47.6C99.652 47.8667 100.119 48 100.752 48H108.102C108.735 48 109.185 47.8667 109.452 47.6C109.752 47.3 109.902 46.8333 109.902 46.2ZM103.202 53.45C103.069 53.5833 102.852 53.7 102.552 53.8C102.285 53.9 101.985 53.95 101.652 53.95H94.302C93.502 53.95 92.9186 53.7667 92.552 53.4C92.1853 53.0333 92.002 52.45 92.002 51.65V38.45C92.002 37.4167 92.152 36.25 92.452 34.95C92.7853 33.6167 93.302 32.05 94.002 30.25L98.302 18.95C98.402 18.65 98.5186 18.4 98.652 18.2C98.8186 17.9667 98.9853 17.7667 99.152 17.6L99.202 17.55L105.602 12.2C105.869 11.9667 106.185 11.8 106.552 11.7C106.919 11.5667 107.335 11.5 107.802 11.5H121.252C122.019 11.5 122.635 11.6667 123.102 12C123.602 12.3 123.969 12.7833 124.202 13.45L128.552 24.8C129.252 26.6 129.752 28.1667 130.052 29.5C130.385 30.8 130.552 31.9667 130.552 33V46.2C130.552 46.6333 130.485 47 130.352 47.3C130.252 47.6 130.085 47.85 129.852 48.05L123.352 53.45C123.219 53.5833 123.002 53.7 122.702 53.8C122.435 53.9 122.135 53.95 121.802 53.95H114.252C113.419 53.95 112.802 53.75 112.402 53.35C112.002 52.9833 111.802 52.4167 111.802 51.65V45.15H110.402V46.2C110.402 46.6333 110.335 47 110.202 47.3C110.102 47.6 109.935 47.85 109.702 48.05L103.202 53.45ZM149.754 53.95H141.654C140.854 53.95 140.271 53.7667 139.904 53.4C139.537 53.0333 139.354 52.45 139.354 51.65V27.6H132.504C131.704 27.6 131.121 27.4167 130.754 27.05C130.387 26.6833 130.204 26.1 130.204 25.3V19.25C130.204 18.8167 130.254 18.45 130.354 18.15C130.487 17.85 130.671 17.6 130.904 17.4L137.354 11.95C137.521 11.8167 137.737 11.7167 138.004 11.65C138.304 11.55 138.621 11.5 138.954 11.5H165.354C166.154 11.5 166.737 11.6833 167.104 12.05C167.471 12.4167 167.654 13 167.654 13.8V19.85C167.654 20.2833 167.587 20.65 167.454 20.95C167.354 21.25 167.187 21.5 166.954 21.7L160.454 27.1C160.321 27.2333 160.104 27.35 159.804 27.45C159.537 27.55 159.237 27.6 158.904 27.6H158.504V46.2C158.504 46.6333 158.437 47 158.304 47.3C158.204 47.6 158.037 47.85 157.804 48.05L151.304 53.45C151.171 53.5833 150.954 53.7 150.654 53.8C150.387 53.9 150.087 53.95 149.754 53.95ZM156.204 48C156.837 48 157.287 47.8667 157.554 47.6C157.854 47.3 158.004 46.8333 158.004 46.2V21.65H165.354C165.987 21.65 166.437 21.5167 166.704 21.25C167.004 20.95 167.154 20.4833 167.154 19.85V13.8C167.154 13.1667 167.004 12.7167 166.704 12.45C166.437 12.15 165.987 12 165.354 12H138.954C138.321 12 137.854 12.15 137.554 12.45C137.287 12.7167 137.154 13.1667 137.154 13.8V19.85C137.154 20.4833 137.287 20.95 137.554 21.25C137.854 21.5167 138.321 21.65 138.954 21.65H146.304V46.2C146.304 46.8333 146.437 47.3 146.704 47.6C147.004 47.8667 147.471 48 148.104 48H156.204ZM151.904 43.5V17H141.654V16.5H162.654V17H152.404V43.5H151.904ZM171.447 53.95C170.647 53.95 170.064 53.7667 169.697 53.4C169.33 53.0333 169.147 52.45 169.147 51.65V45.8C169.147 45.3667 169.197 45 169.297 44.7C169.43 44.4 169.614 44.15 169.847 43.95L174.847 39.75C173.08 39.2167 171.68 38.3167 170.647 37.05C169.647 35.75 169.147 33.9 169.147 31.5V26.25C169.147 24.75 169.397 23.4167 169.897 22.25C170.397 21.0833 171.114 20.1 172.047 19.3L178.547 13.85C179.447 13.1167 180.564 12.55 181.897 12.15C183.23 11.7167 184.747 11.5 186.447 11.5H200.447C201.247 11.5 201.83 11.6833 202.197 12.05C202.564 12.4167 202.747 13 202.747 13.8V19.75C202.747 20.1833 202.68 20.55 202.547 20.85C202.447 21.15 202.28 21.4 202.047 21.6L197.547 25.35C199.647 25.8167 201.33 26.7 202.597 28C203.897 29.2667 204.547 31.25 204.547 33.95V39.2C204.547 40.7 204.297 42.0333 203.797 43.2C203.297 44.3667 202.564 45.35 201.597 46.15L195.147 51.55C194.214 52.3167 193.08 52.9 191.747 53.3C190.414 53.7333 188.914 53.95 187.247 53.95H171.447ZM193.697 48C196.897 48 199.414 47.25 201.247 45.75C203.114 44.2167 204.047 42.0333 204.047 39.2V33.95C204.047 31.15 203.33 29.15 201.897 27.95C200.464 26.75 198.58 25.9833 196.247 25.65L188.797 24.65C188.364 24.6167 188.03 24.45 187.797 24.15C187.564 23.85 187.447 23.4833 187.447 23.05C187.447 22.6167 187.564 22.2667 187.797 22C188.03 21.7 188.364 21.55 188.797 21.55H200.447C201.08 21.55 201.53 21.4167 201.797 21.15C202.097 20.85 202.247 20.3833 202.247 19.75V13.8C202.247 13.1667 202.097 12.7167 201.797 12.45C201.53 12.15 201.08 12 200.447 12H186.447C183.214 12 180.68 12.7667 178.847 14.3C177.014 15.8 176.097 17.9667 176.097 20.8V26.05C176.097 28.85 176.797 30.85 178.197 32.05C179.63 33.25 181.514 34.0167 183.847 34.35L191.347 35.4C191.78 35.4333 192.097 35.5833 192.297 35.85C192.53 36.1167 192.647 36.5333 192.647 37.1C192.647 37.5 192.53 37.85 192.297 38.15C192.097 38.4167 191.78 38.55 191.347 38.55H177.897C177.264 38.55 176.797 38.7 176.497 39C176.23 39.2667 176.097 39.7167 176.097 40.35V46.2C176.097 46.8333 176.23 47.3 176.497 47.6C176.797 47.8667 177.264 48 177.897 48H193.697ZM197.747 16.5V17H186.647C185.247 17 184.13 17.3833 183.297 18.15C182.464 18.9167 182.047 19.8833 182.047 21.05V25.15C182.047 26.3167 182.28 27.1333 182.747 27.6C183.214 28.0667 183.83 28.3667 184.597 28.5L195.147 30.65C196.147 30.85 196.964 31.2833 197.597 31.95C198.264 32.6167 198.597 33.8167 198.597 35.55V38.45C198.597 39.9167 198.097 41.1333 197.097 42.1C196.097 43.0333 194.747 43.5 193.047 43.5H180.597V43H193.047C194.58 43 195.797 42.5833 196.697 41.75C197.63 40.8833 198.097 39.7833 198.097 38.45V35.55C198.097 33.9833 197.814 32.9167 197.247 32.35C196.714 31.75 195.98 31.35 195.047 31.15L184.497 29C183.63 28.8333 182.914 28.5 182.347 28C181.814 27.4667 181.547 26.5167 181.547 25.15V21.05C181.547 19.7167 182.014 18.6333 182.947 17.8C183.88 16.9333 185.114 16.5 186.647 16.5H197.747ZM13.3 113.95H5.55C4.75 113.95 4.16667 113.767 3.8 113.4C3.43333 113.033 3.25 112.45 3.25 111.65V79.25C3.25 78.8167 3.3 78.45 3.4 78.15C3.53333 77.85 3.71667 77.6 3.95 77.4L10.4 71.95C10.5667 71.8167 10.7833 71.7167 11.05 71.65C11.35 71.55 11.6667 71.5 12 71.5H27.3C29.6667 71.5 31.65 71.75 33.25 72.25C34.85 72.75 36.1167 73.45 37.05 74.35C37.9833 75.25 38.6333 76.3333 39 77.6C39.4 78.8667 39.6 80.25 39.6 81.75V88.15C39.6 89.75 39.3667 91.2167 38.9 92.55C38.4667 93.85 37.7 94.9667 36.6 95.9L30.1 101.3C29.2667 102 28.1833 102.583 26.85 103.05C25.55 103.483 23.95 103.733 22.05 103.8V106.2C22.05 106.633 21.9833 107 21.85 107.3C21.75 107.6 21.5833 107.85 21.35 108.05L14.85 113.45C14.7167 113.583 14.5 113.7 14.2 113.8C13.9333 113.9 13.6333 113.95 13.3 113.95ZM19.75 108C20.3833 108 20.8333 107.867 21.1 107.6C21.4 107.3 21.55 106.833 21.55 106.2V97.9H27.3C31.8333 97.9 34.9333 97 36.6 95.2C38.2667 93.4 39.1 91.05 39.1 88.15V81.75C39.1 78.85 38.2667 76.5 36.6 74.7C34.9333 72.9 31.8333 72 27.3 72H12C11.3667 72 10.9 72.15 10.6 72.45C10.3333 72.7167 10.2 73.1667 10.2 73.8V106.2C10.2 106.833 10.3333 107.3 10.6 107.6C10.9 107.867 11.3667 108 12 108H19.75ZM26.6 93.65H16.3V103.5H15.8V76.5H26.6C28.1667 76.5 29.4333 76.6833 30.4 77.05C31.4 77.3833 32.1667 77.85 32.7 78.45C33.2333 79.05 33.6 79.7667 33.8 80.6C34 81.4333 34.1 82.3333 34.1 83.3V87C34.1 87.9667 34 88.8667 33.8 89.7C33.6 90.5 33.2333 91.2 32.7 91.8C32.1667 92.3667 31.4 92.8167 30.4 93.15C29.4333 93.4833 28.1667 93.65 26.6 93.65ZM16.3 93.15H26.6C28.0667 93.15 29.25 93 30.15 92.7C31.0833 92.4 31.8 91.9833 32.3 91.45C32.8 90.8833 33.1333 90.2333 33.3 89.5C33.5 88.7333 33.6 87.9 33.6 87V83.3C33.6 82.4 33.5 81.5667 33.3 80.8C33.1333 80.0333 32.8 79.3667 32.3 78.8C31.8 78.2333 31.0833 77.8 30.15 77.5C29.25 77.1667 28.0667 77 26.6 77H16.3V93.15ZM21.45 81.35H25.95C26.9167 81.35 27.55 81.6 27.85 82.1C28.15 82.6 28.3 83.1667 28.3 83.8V86.45C28.3 87.0833 28.15 87.65 27.85 88.15C27.55 88.65 26.9167 88.9 25.95 88.9H21.45V81.35ZM70.8613 111.55C69.6947 112.55 68.0613 113.317 65.9613 113.85C63.8613 114.417 61.1613 114.7 57.8613 114.7C54.5947 114.7 51.9113 114.35 49.8113 113.65C47.7447 112.983 46.1113 112.083 44.9113 110.95C43.7447 109.817 42.928 108.517 42.4613 107.05C42.028 105.583 41.8113 104.067 41.8113 102.5V86.95C41.8113 85.4167 42.028 84 42.4613 82.7C42.8947 81.3667 43.678 80.2333 44.8113 79.3L51.3113 73.9C52.478 72.9 54.0947 72.1333 56.1613 71.6C58.2613 71.0333 60.978 70.75 64.3113 70.75C67.578 70.75 70.2447 71.0167 72.3113 71.55C74.4113 72.0833 76.0447 72.8333 77.2113 73.8C78.4113 74.7333 79.228 75.8667 79.6613 77.2C80.0947 78.5 80.3113 79.9333 80.3113 81.5V98.55C80.3113 100.083 80.0947 101.5 79.6613 102.8C79.228 104.1 78.4447 105.217 77.3113 106.15L70.8613 111.55ZM79.8113 98.55V81.5C79.8113 79.9667 79.578 78.5833 79.1113 77.35C78.678 76.0833 77.878 75 76.7113 74.1C75.578 73.2 73.9947 72.5 71.9613 72C69.9613 71.5 67.4113 71.25 64.3113 71.25C61.2113 71.25 58.6447 71.5 56.6113 72C54.578 72.5 52.978 73.2 51.8113 74.1C50.678 75 49.878 76.0833 49.4113 77.35C48.978 78.5833 48.7613 79.9667 48.7613 81.5V98.55C48.7613 100.083 48.978 101.483 49.4113 102.75C49.878 103.983 50.678 105.05 51.8113 105.95C52.978 106.817 54.578 107.5 56.6113 108C58.6447 108.5 61.2113 108.75 64.3113 108.75C67.4113 108.75 69.9613 108.5 71.9613 108C73.9947 107.5 75.578 106.817 76.7113 105.95C77.878 105.05 78.678 103.983 79.1113 102.75C79.578 101.483 79.8113 100.083 79.8113 98.55ZM74.3613 97.4C74.3613 99.4 73.6447 101.033 72.2113 102.3C70.778 103.533 68.1113 104.15 64.2113 104.15C60.3113 104.15 57.6613 103.533 56.2613 102.3C54.8613 101.033 54.1613 99.4 54.1613 97.4V82.65C54.1613 80.65 54.8613 79.0333 56.2613 77.8C57.6613 76.5333 60.3113 75.9 64.2113 75.9C68.1113 75.9 70.778 76.5333 72.2113 77.8C73.6447 79.0333 74.3613 80.65 74.3613 82.65V97.4ZM54.6613 97.4C54.6613 99.2667 55.328 100.783 56.6613 101.95C57.9947 103.083 60.5113 103.65 64.2113 103.65C67.9113 103.65 70.4447 103.083 71.8113 101.95C73.178 100.783 73.8613 99.2667 73.8613 97.4V82.65C73.8613 80.7833 73.178 79.2833 71.8113 78.15C70.4447 76.9833 67.9113 76.4 64.2113 76.4C60.5113 76.4 57.9947 76.9833 56.6613 78.15C55.328 79.2833 54.6613 80.7833 54.6613 82.65V97.4ZM60.1113 96.75V83.3C60.1113 82.6667 60.3613 82.1333 60.8613 81.7C61.3613 81.2333 62.5113 81 64.3113 81C66.1113 81 67.2613 81.2333 67.7613 81.7C68.2613 82.1333 68.5113 82.6667 68.5113 83.3V96.75C68.5113 97.4167 68.2613 97.9833 67.7613 98.45C67.2613 98.8833 66.1113 99.1 64.3113 99.1C62.5113 99.1 61.3613 98.8833 60.8613 98.45C60.3613 97.9833 60.1113 97.4167 60.1113 96.75ZM60.6113 96.75C60.6113 97.0833 60.678 97.3833 60.8113 97.65C60.9447 97.8833 61.1947 98.0833 61.5613 98.25V88.75C61.5613 88.4167 61.4947 88.1333 61.3613 87.9C61.228 87.6333 60.978 87.4333 60.6113 87.3V96.75ZM94.257 113.95H86.507C85.707 113.95 85.1237 113.767 84.757 113.4C84.3904 113.033 84.207 112.45 84.207 111.65V79.25C84.207 78.8167 84.257 78.45 84.357 78.15C84.4904 77.85 84.6737 77.6 84.907 77.4L91.357 71.95C91.5237 71.8167 91.7404 71.7167 92.007 71.65C92.307 71.55 92.6237 71.5 92.957 71.5H108.257C110.624 71.5 112.607 71.75 114.207 72.25C115.807 72.75 117.074 73.45 118.007 74.35C118.94 75.25 119.59 76.3333 119.957 77.6C120.357 78.8667 120.557 80.25 120.557 81.75V88.15C120.557 89.75 120.324 91.2167 119.857 92.55C119.424 93.85 118.657 94.9667 117.557 95.9L111.057 101.3C110.224 102 109.14 102.583 107.807 103.05C106.507 103.483 104.907 103.733 103.007 103.8V106.2C103.007 106.633 102.94 107 102.807 107.3C102.707 107.6 102.54 107.85 102.307 108.05L95.807 113.45C95.6737 113.583 95.457 113.7 95.157 113.8C94.8904 113.9 94.5904 113.95 94.257 113.95ZM100.707 108C101.34 108 101.79 107.867 102.057 107.6C102.357 107.3 102.507 106.833 102.507 106.2V97.9H108.257C112.79 97.9 115.89 97 117.557 95.2C119.224 93.4 120.057 91.05 120.057 88.15V81.75C120.057 78.85 119.224 76.5 117.557 74.7C115.89 72.9 112.79 72 108.257 72H92.957C92.3237 72 91.857 72.15 91.557 72.45C91.2904 72.7167 91.157 73.1667 91.157 73.8V106.2C91.157 106.833 91.2904 107.3 91.557 107.6C91.857 107.867 92.3237 108 92.957 108H100.707ZM107.557 93.65H97.257V103.5H96.757V76.5H107.557C109.124 76.5 110.39 76.6833 111.357 77.05C112.357 77.3833 113.124 77.85 113.657 78.45C114.19 79.05 114.557 79.7667 114.757 80.6C114.957 81.4333 115.057 82.3333 115.057 83.3V87C115.057 87.9667 114.957 88.8667 114.757 89.7C114.557 90.5 114.19 91.2 113.657 91.8C113.124 92.3667 112.357 92.8167 111.357 93.15C110.39 93.4833 109.124 93.65 107.557 93.65ZM97.257 93.15H107.557C109.024 93.15 110.207 93 111.107 92.7C112.04 92.4 112.757 91.9833 113.257 91.45C113.757 90.8833 114.09 90.2333 114.257 89.5C114.457 88.7333 114.557 87.9 114.557 87V83.3C114.557 82.4 114.457 81.5667 114.257 80.8C114.09 80.0333 113.757 79.3667 113.257 78.8C112.757 78.2333 112.04 77.8 111.107 77.5C110.207 77.1667 109.024 77 107.557 77H97.257V93.15ZM102.407 81.35H106.907C107.874 81.35 108.507 81.6 108.807 82.1C109.107 82.6 109.257 83.1667 109.257 83.8V86.45C109.257 87.0833 109.107 87.65 108.807 88.15C108.507 88.65 107.874 88.9 106.907 88.9H102.407V81.35ZM133.368 113.95H125.618C124.818 113.95 124.235 113.767 123.868 113.4C123.502 113.033 123.318 112.45 123.318 111.65V79.25C123.318 78.8167 123.368 78.45 123.468 78.15C123.602 77.85 123.785 77.6 124.018 77.4L130.468 71.95C130.635 71.8167 130.852 71.7167 131.118 71.65C131.418 71.55 131.735 71.5 132.068 71.5H147.368C149.735 71.5 151.718 71.75 153.318 72.25C154.918 72.75 156.185 73.45 157.118 74.35C158.052 75.25 158.702 76.3333 159.068 77.6C159.468 78.8667 159.668 80.25 159.668 81.75V88.15C159.668 89.75 159.435 91.2167 158.968 92.55C158.535 93.85 157.768 94.9667 156.668 95.9L150.168 101.3C149.335 102 148.252 102.583 146.918 103.05C145.618 103.483 144.018 103.733 142.118 103.8V106.2C142.118 106.633 142.052 107 141.918 107.3C141.818 107.6 141.652 107.85 141.418 108.05L134.918 113.45C134.785 113.583 134.568 113.7 134.268 113.8C134.002 113.9 133.702 113.95 133.368 113.95ZM139.818 108C140.452 108 140.902 107.867 141.168 107.6C141.468 107.3 141.618 106.833 141.618 106.2V97.9H147.368C151.902 97.9 155.002 97 156.668 95.2C158.335 93.4 159.168 91.05 159.168 88.15V81.75C159.168 78.85 158.335 76.5 156.668 74.7C155.002 72.9 151.902 72 147.368 72H132.068C131.435 72 130.968 72.15 130.668 72.45C130.402 72.7167 130.268 73.1667 130.268 73.8V106.2C130.268 106.833 130.402 107.3 130.668 107.6C130.968 107.867 131.435 108 132.068 108H139.818ZM146.668 93.65H136.368V103.5H135.868V76.5H146.668C148.235 76.5 149.502 76.6833 150.468 77.05C151.468 77.3833 152.235 77.85 152.768 78.45C153.302 79.05 153.668 79.7667 153.868 80.6C154.068 81.4333 154.168 82.3333 154.168 83.3V87C154.168 87.9667 154.068 88.8667 153.868 89.7C153.668 90.5 153.302 91.2 152.768 91.8C152.235 92.3667 151.468 92.8167 150.468 93.15C149.502 93.4833 148.235 93.65 146.668 93.65ZM136.368 93.15H146.668C148.135 93.15 149.318 93 150.218 92.7C151.152 92.4 151.868 91.9833 152.368 91.45C152.868 90.8833 153.202 90.2333 153.368 89.5C153.568 88.7333 153.668 87.9 153.668 87V83.3C153.668 82.4 153.568 81.5667 153.368 80.8C153.202 80.0333 152.868 79.3667 152.368 78.8C151.868 78.2333 151.152 77.8 150.218 77.5C149.318 77.1667 148.135 77 146.668 77H136.368V93.15ZM141.518 81.35H146.018C146.985 81.35 147.618 81.6 147.918 82.1C148.218 82.6 148.368 83.1667 148.368 83.8V86.45C148.368 87.0833 148.218 87.65 147.918 88.15C147.618 88.65 146.985 88.9 146.018 88.9H141.518V81.35ZM185.23 113.95H163.93C163.13 113.95 162.546 113.767 162.18 113.4C161.813 113.033 161.63 112.45 161.63 111.65V105.7C161.63 105.267 161.68 104.9 161.78 104.6C161.913 104.3 162.096 104.05 162.33 103.85L168.38 98.75V87.6H163.93C163.13 87.6 162.546 87.4167 162.18 87.05C161.813 86.6833 161.63 86.1 161.63 85.3V79.25C161.63 78.8167 161.68 78.45 161.78 78.15C161.913 77.85 162.096 77.6 162.33 77.4L168.78 71.95C168.946 71.8167 169.163 71.7167 169.43 71.65C169.73 71.55 170.046 71.5 170.38 71.5H191.68C192.48 71.5 193.063 71.6833 193.43 72.05C193.796 72.4167 193.98 73 193.98 73.8V79.85C193.98 80.2833 193.913 80.65 193.78 80.95C193.68 81.25 193.513 81.5 193.28 81.7L187.33 86.7V97.95H191.68C192.48 97.95 193.063 98.1333 193.43 98.5C193.796 98.8667 193.98 99.45 193.98 100.25V106.2C193.98 106.633 193.913 107 193.78 107.3C193.68 107.6 193.513 107.85 193.28 108.05L186.78 113.45C186.646 113.583 186.43 113.7 186.13 113.8C185.863 113.9 185.563 113.95 185.23 113.95ZM170.38 108H191.68C192.313 108 192.763 107.867 193.03 107.6C193.33 107.3 193.48 106.833 193.48 106.2V100.25C193.48 99.6167 193.33 99.1667 193.03 98.9C192.763 98.6 192.313 98.45 191.68 98.45H186.83V81.65H191.68C192.313 81.65 192.763 81.5167 193.03 81.25C193.33 80.95 193.48 80.4833 193.48 79.85V73.8C193.48 73.1667 193.33 72.7167 193.03 72.45C192.763 72.15 192.313 72 191.68 72H170.38C169.746 72 169.28 72.15 168.98 72.45C168.713 72.7167 168.58 73.1667 168.58 73.8V79.85C168.58 80.4833 168.713 80.95 168.98 81.25C169.28 81.5167 169.746 81.65 170.38 81.65H175.33V98.45H170.38C169.746 98.45 169.28 98.6 168.98 98.9C168.713 99.1667 168.58 99.6167 168.58 100.25V106.2C168.58 106.833 168.713 107.3 168.98 107.6C169.28 107.867 169.746 108 170.38 108ZM188.98 103.5H173.08V103H180.83V77H173.08V76.5H188.98V77H181.33V103H188.98V103.5ZM211.234 76.9L229.634 97.6V76.5H230.134V103.5H229.634V98.35L210.734 77.15C210.7 77.1167 210.65 77.0833 210.584 77.05C210.55 77.0167 210.517 77 210.484 77C210.45 77 210.417 77.0167 210.384 77.05C210.384 77.0833 210.384 77.1167 210.384 77.15V103.5H209.884V77.05C209.884 76.85 209.95 76.7 210.084 76.6C210.217 76.5 210.35 76.45 210.484 76.45C210.617 76.45 210.734 76.4833 210.834 76.55C210.934 76.6167 211.067 76.7333 211.234 76.9ZM213.934 108C214.567 108 215.017 107.867 215.284 107.6C215.584 107.3 215.734 106.833 215.734 106.2V89.7L224.284 100.05V106.2C224.284 106.833 224.417 107.3 224.684 107.6C224.984 107.867 225.45 108 226.084 108H233.584C234.217 108 234.667 107.867 234.934 107.6C235.234 107.3 235.384 106.833 235.384 106.2V73.8C235.384 73.1667 235.234 72.7167 234.934 72.45C234.667 72.15 234.217 72 233.584 72H226.084C225.45 72 224.984 72.15 224.684 72.45C224.417 72.7167 224.284 73.1667 224.284 73.8V84.45L214.584 73.35C214.15 72.85 213.7 72.5 213.234 72.3C212.8 72.1 212.267 72 211.634 72H206.434C205.8 72 205.334 72.15 205.034 72.45C204.767 72.7167 204.634 73.1667 204.634 73.8V106.2C204.634 106.833 204.767 107.3 205.034 107.6C205.334 107.867 205.8 108 206.434 108H213.934ZM215.534 108.05L209.034 113.45C208.9 113.583 208.684 113.7 208.384 113.8C208.117 113.9 207.817 113.95 207.484 113.95H199.984C199.184 113.95 198.6 113.767 198.234 113.4C197.867 113.033 197.684 112.45 197.684 111.65V79.25C197.684 78.8167 197.734 78.45 197.834 78.15C197.967 77.85 198.15 77.6 198.384 77.4L204.834 71.95C205 71.8167 205.217 71.7167 205.484 71.65C205.784 71.55 206.1 71.5 206.434 71.5H211.634C212.367 71.5 212.984 71.6167 213.484 71.85C213.984 72.0833 214.484 72.4667 214.984 73L218.434 77L224.484 71.95C224.65 71.8167 224.867 71.7167 225.134 71.65C225.434 71.55 225.75 71.5 226.084 71.5H233.584C234.384 71.5 234.967 71.6833 235.334 72.05C235.7 72.4167 235.884 73 235.884 73.8V106.2C235.884 106.633 235.817 107 235.684 107.3C235.584 107.6 235.417 107.85 235.184 108.05L228.684 113.45C228.55 113.583 228.334 113.7 228.034 113.8C227.767 113.9 227.467 113.95 227.134 113.95H219.634C218.834 113.95 218.25 113.767 217.884 113.4C217.517 113.033 217.334 112.45 217.334 111.65V105.7L216.234 104.35V106.2C216.234 106.633 216.167 107 216.034 107.3C215.934 107.6 215.767 107.85 215.534 108.05ZM254.561 113.95H245.411C244.577 113.95 243.977 113.767 243.611 113.4C243.277 113.033 243.111 112.45 243.111 111.65V105.1C243.111 104.633 243.161 104.25 243.261 103.95C243.361 103.617 243.527 103.383 243.761 103.25L245.211 102C244.944 101.867 244.711 101.667 244.511 101.4C244.344 101.1 244.227 100.7 244.161 100.2L243.111 93.6C243.011 93.1 243.011 92.6833 243.111 92.35C243.244 91.9833 243.444 91.6833 243.711 91.45L248.311 87.6H241.411C240.611 87.6 240.027 87.4333 239.661 87.1C239.294 86.7333 239.111 86.1333 239.111 85.3V79.25C239.111 78.8167 239.161 78.45 239.261 78.15C239.394 77.85 239.577 77.6 239.811 77.4L246.261 71.95C246.427 71.8167 246.644 71.7167 246.911 71.65C247.211 71.55 247.527 71.5 247.861 71.5H264.011C267.411 71.5 270.061 72.3 271.961 73.9C273.894 75.5 274.861 77.8 274.861 80.8V86.05C274.861 87.65 274.627 89 274.161 90.1C273.727 91.1667 273.094 92.05 272.261 92.75L265.811 98.15C265.444 98.45 265.044 98.7167 264.611 98.95C264.211 99.1833 263.777 99.3833 263.311 99.55V106.2C263.311 106.633 263.244 107 263.111 107.3C263.011 107.6 262.844 107.85 262.611 108.05L256.111 113.45C255.977 113.583 255.761 113.7 255.461 113.8C255.194 113.9 254.894 113.95 254.561 113.95ZM266.611 94.35C268.977 94.0167 270.861 93.25 272.261 92.05C273.661 90.85 274.361 88.85 274.361 86.05V80.8C274.361 77.9667 273.444 75.8 271.611 74.3C269.777 72.7667 267.244 72 264.011 72H247.861C247.227 72 246.761 72.15 246.461 72.45C246.194 72.7167 246.061 73.1667 246.061 73.8V79.85C246.061 80.4833 246.194 80.95 246.461 81.25C246.761 81.5167 247.227 81.65 247.861 81.65H261.661C262.094 81.65 262.427 81.7667 262.661 82C262.894 82.2333 263.011 82.5833 263.011 83.05C263.011 83.55 262.911 83.9167 262.711 84.15C262.511 84.3833 262.161 84.5333 261.661 84.6L251.711 86C251.077 86.0667 250.611 86.2667 250.311 86.6C250.044 86.9333 249.961 87.4167 250.061 88.05L251.111 94.65C251.211 95.2833 251.394 95.7167 251.661 95.95C251.961 96.1833 252.427 96.2667 253.061 96.2L266.611 94.35ZM255.061 91L254.961 90.45L265.761 89C266.394 88.9 266.961 88.7333 267.461 88.5C267.961 88.2333 268.211 87.6667 268.211 86.8V81.15C268.211 79.5167 267.761 78.4333 266.861 77.9C265.994 77.3667 265.044 77.1 264.011 77.1H250.561V76.6H264.011C265.144 76.6 266.211 76.9167 267.211 77.55C268.211 78.15 268.711 79.35 268.711 81.15V86.8C268.711 87.8333 268.427 88.5167 267.861 88.85C267.294 89.1833 266.627 89.4 265.861 89.5L255.061 91ZM261.011 108C261.644 108 262.094 107.867 262.361 107.6C262.661 107.3 262.811 106.833 262.811 106.2V99.65C262.811 99.0167 262.661 98.5667 262.361 98.3C262.094 98 261.644 97.85 261.011 97.85H251.861C251.227 97.85 250.761 98 250.461 98.3C250.194 98.5667 250.061 99.0167 250.061 99.65V106.2C250.061 106.833 250.194 107.3 250.461 107.6C250.761 107.867 251.227 108 251.861 108H261.011ZM256.211 104V101.85H256.711V104H256.211Z" fill="black"/>
<path d="M63.825 140.975C63.425 140.975 63.1333 140.883 62.95 140.7C62.7667 140.517 62.675 140.225 62.675 139.825V136.9C62.675 136.683 62.7 136.5 62.75 136.35C62.8167 136.2 62.9083 136.075 63.025 135.975L65.525 133.875C64.6417 133.608 63.9417 133.158 63.425 132.525C62.925 131.875 62.675 130.95 62.675 129.75V127.125C62.675 126.375 62.8 125.708 63.05 125.125C63.3 124.542 63.6583 124.05 64.125 123.65L67.375 120.925C67.825 120.558 68.3833 120.275 69.05 120.075C69.7167 119.858 70.475 119.75 71.325 119.75H78.325C78.725 119.75 79.0167 119.842 79.2 120.025C79.3833 120.208 79.475 120.5 79.475 120.9V123.875C79.475 124.092 79.4417 124.275 79.375 124.425C79.325 124.575 79.2417 124.7 79.125 124.8L76.875 126.675C77.925 126.908 78.7667 127.35 79.4 128C80.05 128.633 80.375 129.625 80.375 130.975V133.6C80.375 134.35 80.25 135.017 80 135.6C79.75 136.183 79.3833 136.675 78.9 137.075L75.675 139.775C75.2083 140.158 74.6417 140.45 73.975 140.65C73.3083 140.867 72.5583 140.975 71.725 140.975H63.825ZM74.95 138C76.55 138 77.8083 137.625 78.725 136.875C79.6583 136.108 80.125 135.017 80.125 133.6V130.975C80.125 129.575 79.7667 128.575 79.05 127.975C78.3333 127.375 77.3917 126.992 76.225 126.825L72.5 126.325C72.2833 126.308 72.1167 126.225 72 126.075C71.8833 125.925 71.825 125.742 71.825 125.525C71.825 125.308 71.8833 125.133 72 125C72.1167 124.85 72.2833 124.775 72.5 124.775H78.325C78.6417 124.775 78.8667 124.708 79 124.575C79.15 124.425 79.225 124.192 79.225 123.875V120.9C79.225 120.583 79.15 120.358 79 120.225C78.8667 120.075 78.6417 120 78.325 120H71.325C69.7083 120 68.4417 120.383 67.525 121.15C66.6083 121.9 66.15 122.983 66.15 124.4V127.025C66.15 128.425 66.5 129.425 67.2 130.025C67.9167 130.625 68.8583 131.008 70.025 131.175L73.775 131.7C73.9917 131.717 74.15 131.792 74.25 131.925C74.3667 132.058 74.425 132.267 74.425 132.55C74.425 132.75 74.3667 132.925 74.25 133.075C74.15 133.208 73.9917 133.275 73.775 133.275H67.05C66.7333 133.275 66.5 133.35 66.35 133.5C66.2167 133.633 66.15 133.858 66.15 134.175V137.1C66.15 137.417 66.2167 137.65 66.35 137.8C66.5 137.933 66.7333 138 67.05 138H74.95ZM76.975 122.25V122.5H71.425C70.725 122.5 70.1667 122.692 69.75 123.075C69.3333 123.458 69.125 123.942 69.125 124.525V126.575C69.125 127.158 69.2417 127.567 69.475 127.8C69.7083 128.033 70.0167 128.183 70.4 128.25L75.675 129.325C76.175 129.425 76.5833 129.642 76.9 129.975C77.2333 130.308 77.4 130.908 77.4 131.775V133.225C77.4 133.958 77.15 134.567 76.65 135.05C76.15 135.517 75.475 135.75 74.625 135.75H68.4V135.5H74.625C75.3917 135.5 76 135.292 76.45 134.875C76.9167 134.442 77.15 133.892 77.15 133.225V131.775C77.15 130.992 77.0083 130.458 76.725 130.175C76.4583 129.875 76.0917 129.675 75.625 129.575L70.35 128.5C69.9167 128.417 69.5583 128.25 69.275 128C69.0083 127.733 68.875 127.258 68.875 126.575V124.525C68.875 123.858 69.1083 123.317 69.575 122.9C70.0417 122.467 70.6583 122.25 71.425 122.25H76.975ZM96.125 139.775C95.5417 140.275 94.725 140.658 93.675 140.925C92.625 141.208 91.275 141.35 89.625 141.35C87.9917 141.35 86.65 141.175 85.6 140.825C84.5667 140.492 83.75 140.042 83.15 139.475C82.5667 138.908 82.1583 138.258 81.925 137.525C81.7083 136.792 81.6 136.033 81.6 135.25V127.475C81.6 126.708 81.7083 126 81.925 125.35C82.1417 124.683 82.5333 124.117 83.1 123.65L86.35 120.95C86.9333 120.45 87.7417 120.067 88.775 119.8C89.825 119.517 91.1833 119.375 92.85 119.375C94.4833 119.375 95.8167 119.508 96.85 119.775C97.9 120.042 98.7167 120.417 99.3 120.9C99.9 121.367 100.308 121.933 100.525 122.6C100.742 123.25 100.85 123.967 100.85 124.75V133.275C100.85 134.042 100.742 134.75 100.525 135.4C100.308 136.05 99.9167 136.608 99.35 137.075L96.125 139.775ZM100.6 133.275V124.75C100.6 123.983 100.483 123.292 100.25 122.675C100.033 122.042 99.6333 121.5 99.05 121.05C98.4833 120.6 97.6917 120.25 96.675 120C95.675 119.75 94.4 119.625 92.85 119.625C91.3 119.625 90.0167 119.75 89 120C87.9833 120.25 87.1833 120.6 86.6 121.05C86.0333 121.5 85.6333 122.042 85.4 122.675C85.1833 123.292 85.075 123.983 85.075 124.75V133.275C85.075 134.042 85.1833 134.742 85.4 135.375C85.6333 135.992 86.0333 136.525 86.6 136.975C87.1833 137.408 87.9833 137.75 89 138C90.0167 138.25 91.3 138.375 92.85 138.375C94.4 138.375 95.675 138.25 96.675 138C97.6917 137.75 98.4833 137.408 99.05 136.975C99.6333 136.525 100.033 135.992 100.25 135.375C100.483 134.742 100.6 134.042 100.6 133.275ZM97.875 132.7C97.875 133.7 97.5167 134.517 96.8 135.15C96.0833 135.767 94.75 136.075 92.8 136.075C90.85 136.075 89.525 135.767 88.825 135.15C88.125 134.517 87.775 133.7 87.775 132.7V125.325C87.775 124.325 88.125 123.517 88.825 122.9C89.525 122.267 90.85 121.95 92.8 121.95C94.75 121.95 96.0833 122.267 96.8 122.9C97.5167 123.517 97.875 124.325 97.875 125.325V132.7ZM88.025 132.7C88.025 133.633 88.3583 134.392 89.025 134.975C89.6917 135.542 90.95 135.825 92.8 135.825C94.65 135.825 95.9167 135.542 96.6 134.975C97.2833 134.392 97.625 133.633 97.625 132.7V125.325C97.625 124.392 97.2833 123.642 96.6 123.075C95.9167 122.492 94.65 122.2 92.8 122.2C90.95 122.2 89.6917 122.492 89.025 123.075C88.3583 123.642 88.025 124.392 88.025 125.325V132.7ZM90.75 132.375V125.65C90.75 125.333 90.875 125.067 91.125 124.85C91.375 124.617 91.95 124.5 92.85 124.5C93.75 124.5 94.325 124.617 94.575 124.85C94.825 125.067 94.95 125.333 94.95 125.65V132.375C94.95 132.708 94.825 132.992 94.575 133.225C94.325 133.442 93.75 133.55 92.85 133.55C91.95 133.55 91.375 133.442 91.125 133.225C90.875 132.992 90.75 132.708 90.75 132.375ZM91 132.375C91 132.542 91.0333 132.692 91.1 132.825C91.1667 132.942 91.2917 133.042 91.475 133.125V128.375C91.475 128.208 91.4417 128.067 91.375 127.95C91.3083 127.817 91.1833 127.717 91 127.65V132.375ZM109.573 122.45L118.773 132.8V122.25H119.023V135.75H118.773V133.175L109.323 122.575C109.306 122.558 109.281 122.542 109.248 122.525C109.231 122.508 109.215 122.5 109.198 122.5C109.181 122.5 109.165 122.508 109.148 122.525C109.148 122.542 109.148 122.558 109.148 122.575V135.75H108.898V122.525C108.898 122.425 108.931 122.35 108.998 122.3C109.065 122.25 109.131 122.225 109.198 122.225C109.265 122.225 109.323 122.242 109.373 122.275C109.423 122.308 109.49 122.367 109.573 122.45ZM110.923 138C111.24 138 111.465 137.933 111.598 137.8C111.748 137.65 111.823 137.417 111.823 137.1V128.85L116.098 134.025V137.1C116.098 137.417 116.165 137.65 116.298 137.8C116.448 137.933 116.681 138 116.998 138H120.748C121.065 138 121.29 137.933 121.423 137.8C121.573 137.65 121.648 137.417 121.648 137.1V120.9C121.648 120.583 121.573 120.358 121.423 120.225C121.29 120.075 121.065 120 120.748 120H116.998C116.681 120 116.448 120.075 116.298 120.225C116.165 120.358 116.098 120.583 116.098 120.9V126.225L111.248 120.675C111.031 120.425 110.806 120.25 110.573 120.15C110.356 120.05 110.09 120 109.773 120H107.173C106.856 120 106.623 120.075 106.473 120.225C106.34 120.358 106.273 120.583 106.273 120.9V137.1C106.273 137.417 106.34 137.65 106.473 137.8C106.623 137.933 106.856 138 107.173 138H110.923ZM111.723 138.025L108.473 140.725C108.406 140.792 108.298 140.85 108.148 140.9C108.015 140.95 107.865 140.975 107.698 140.975H103.948C103.548 140.975 103.256 140.883 103.073 140.7C102.89 140.517 102.798 140.225 102.798 139.825V123.625C102.798 123.408 102.823 123.225 102.873 123.075C102.94 122.925 103.031 122.8 103.148 122.7L106.373 119.975C106.456 119.908 106.565 119.858 106.698 119.825C106.848 119.775 107.006 119.75 107.173 119.75H109.773C110.14 119.75 110.448 119.808 110.698 119.925C110.948 120.042 111.198 120.233 111.448 120.5L113.173 122.5L116.198 119.975C116.281 119.908 116.39 119.858 116.523 119.825C116.673 119.775 116.831 119.75 116.998 119.75H120.748C121.148 119.75 121.44 119.842 121.623 120.025C121.806 120.208 121.898 120.5 121.898 120.9V137.1C121.898 137.317 121.865 137.5 121.798 137.65C121.748 137.8 121.665 137.925 121.548 138.025L118.298 140.725C118.231 140.792 118.123 140.85 117.973 140.9C117.84 140.95 117.69 140.975 117.523 140.975H113.773C113.373 140.975 113.081 140.883 112.898 140.7C112.715 140.517 112.623 140.225 112.623 139.825V136.85L112.073 136.175V137.1C112.073 137.317 112.04 137.5 111.973 137.65C111.923 137.8 111.84 137.925 111.723 138.025ZM138.361 139.775C137.778 140.275 136.961 140.658 135.911 140.925C134.861 141.208 133.511 141.35 131.861 141.35C130.228 141.35 128.886 141.175 127.836 140.825C126.803 140.492 125.986 140.042 125.386 139.475C124.803 138.908 124.395 138.258 124.161 137.525C123.945 136.792 123.836 136.033 123.836 135.25V127.475C123.836 126.708 123.945 126 124.161 125.35C124.378 124.683 124.77 124.117 125.336 123.65L128.586 120.95C129.17 120.45 129.978 120.067 131.011 119.8C132.061 119.517 133.42 119.375 135.086 119.375C136.72 119.375 138.053 119.508 139.086 119.775C140.136 120.042 140.953 120.417 141.536 120.9C142.136 121.367 142.545 121.933 142.761 122.6C142.978 123.25 143.086 123.967 143.086 124.75V133.275C143.086 134.042 142.978 134.75 142.761 135.4C142.545 136.05 142.153 136.608 141.586 137.075L138.361 139.775ZM142.836 133.275V124.75C142.836 123.983 142.72 123.292 142.486 122.675C142.27 122.042 141.87 121.5 141.286 121.05C140.72 120.6 139.928 120.25 138.911 120C137.911 119.75 136.636 119.625 135.086 119.625C133.536 119.625 132.253 119.75 131.236 120C130.22 120.25 129.42 120.6 128.836 121.05C128.27 121.5 127.87 122.042 127.636 122.675C127.42 123.292 127.311 123.983 127.311 124.75V133.275C127.311 134.042 127.42 134.742 127.636 135.375C127.87 135.992 128.27 136.525 128.836 136.975C129.42 137.408 130.22 137.75 131.236 138C132.253 138.25 133.536 138.375 135.086 138.375C136.636 138.375 137.911 138.25 138.911 138C139.928 137.75 140.72 137.408 141.286 136.975C141.87 136.525 142.27 135.992 142.486 135.375C142.72 134.742 142.836 134.042 142.836 133.275ZM140.111 132.7C140.111 133.7 139.753 134.517 139.036 135.15C138.32 135.767 136.986 136.075 135.036 136.075C133.086 136.075 131.761 135.767 131.061 135.15C130.361 134.517 130.011 133.7 130.011 132.7V125.325C130.011 124.325 130.361 123.517 131.061 122.9C131.761 122.267 133.086 121.95 135.036 121.95C136.986 121.95 138.32 122.267 139.036 122.9C139.753 123.517 140.111 124.325 140.111 125.325V132.7ZM130.261 132.7C130.261 133.633 130.595 134.392 131.261 134.975C131.928 135.542 133.186 135.825 135.036 135.825C136.886 135.825 138.153 135.542 138.836 134.975C139.52 134.392 139.861 133.633 139.861 132.7V125.325C139.861 124.392 139.52 123.642 138.836 123.075C138.153 122.492 136.886 122.2 135.036 122.2C133.186 122.2 131.928 122.492 131.261 123.075C130.595 123.642 130.261 124.392 130.261 125.325V132.7ZM132.986 132.375V125.65C132.986 125.333 133.111 125.067 133.361 124.85C133.611 124.617 134.186 124.5 135.086 124.5C135.986 124.5 136.561 124.617 136.811 124.85C137.061 125.067 137.186 125.333 137.186 125.65V132.375C137.186 132.708 137.061 132.992 136.811 133.225C136.561 133.442 135.986 133.55 135.086 133.55C134.186 133.55 133.611 133.442 133.361 133.225C133.111 132.992 132.986 132.708 132.986 132.375ZM133.236 132.375C133.236 132.542 133.27 132.692 133.336 132.825C133.403 132.942 133.528 133.042 133.711 133.125V128.375C133.711 128.208 133.678 128.067 133.611 127.95C133.545 127.817 133.42 127.717 133.236 127.65V132.375ZM157.309 128.375C157.609 128.375 157.826 128.308 157.959 128.175C158.093 128.042 158.301 127.758 158.584 127.325L161.634 122.675C161.734 122.508 161.843 122.4 161.959 122.35C162.093 122.283 162.226 122.25 162.359 122.25H162.784C163.018 122.25 163.184 122.317 163.284 122.45C163.401 122.567 163.459 122.758 163.459 123.025V135.75H163.209V123.025C163.209 122.892 163.176 122.775 163.109 122.675C163.059 122.558 162.951 122.5 162.784 122.5H162.409C162.293 122.5 162.193 122.517 162.109 122.55C162.026 122.583 161.934 122.683 161.834 122.85L158.784 127.45C158.484 127.9 158.251 128.208 158.084 128.375C157.934 128.542 157.676 128.625 157.309 128.625C156.943 128.625 156.676 128.542 156.509 128.375C156.359 128.208 156.134 127.9 155.834 127.45L152.784 122.85C152.684 122.683 152.584 122.583 152.484 122.55C152.401 122.517 152.301 122.5 152.184 122.5H151.809C151.643 122.5 151.534 122.558 151.484 122.675C151.434 122.775 151.409 122.892 151.409 123.025V135.75H151.159V123.025C151.159 122.758 151.209 122.567 151.309 122.45C151.426 122.317 151.593 122.25 151.809 122.25H152.234C152.368 122.25 152.501 122.283 152.634 122.35C152.768 122.4 152.884 122.508 152.984 122.675L156.034 127.325C156.318 127.758 156.526 128.042 156.659 128.175C156.793 128.308 157.009 128.375 157.309 128.375ZM153.134 138C153.451 138 153.676 137.933 153.809 137.8C153.959 137.65 154.034 137.417 154.034 137.1V128.3L155.509 131.025C155.659 131.308 155.834 131.517 156.034 131.65C156.251 131.767 156.518 131.825 156.834 131.825H157.834C158.151 131.825 158.409 131.767 158.609 131.65C158.826 131.517 159.009 131.308 159.159 131.025L160.634 128.3V137.1C160.634 137.417 160.701 137.65 160.834 137.8C160.984 137.933 161.218 138 161.534 138H165.384C165.701 138 165.926 137.933 166.059 137.8C166.209 137.65 166.284 137.417 166.284 137.1V120.9C166.284 120.583 166.209 120.358 166.059 120.225C165.926 120.075 165.701 120 165.384 120H161.334C161.068 120 160.843 120.058 160.659 120.175C160.493 120.292 160.334 120.483 160.184 120.75L157.959 124.825C157.876 124.975 157.801 125.083 157.734 125.15C157.684 125.217 157.609 125.25 157.509 125.25H157.284C157.184 125.25 157.101 125.217 157.034 125.15C156.984 125.083 156.918 124.975 156.834 124.825L154.584 120.75C154.434 120.483 154.268 120.292 154.084 120.175C153.918 120.058 153.701 120 153.434 120H149.409C149.093 120 148.859 120.075 148.709 120.225C148.576 120.358 148.509 120.583 148.509 120.9V137.1C148.509 137.417 148.576 137.65 148.709 137.8C148.859 137.933 149.093 138 149.409 138H153.134ZM153.934 138.025L150.684 140.725C150.618 140.792 150.509 140.85 150.359 140.9C150.226 140.95 150.076 140.975 149.909 140.975H146.184C145.784 140.975 145.493 140.883 145.309 140.7C145.126 140.517 145.034 140.225 145.034 139.825V123.625C145.034 123.408 145.059 123.225 145.109 123.075C145.176 122.925 145.268 122.8 145.384 122.7L148.609 119.975C148.693 119.908 148.801 119.858 148.934 119.825C149.084 119.775 149.243 119.75 149.409 119.75H153.434C153.751 119.75 154.009 119.817 154.209 119.95C154.426 120.083 154.626 120.308 154.809 120.625L156.509 123.75L156.734 123.35C156.801 123.233 156.868 123.125 156.934 123.025C157.018 122.908 157.101 122.817 157.184 122.75L160.409 120.05C160.543 119.95 160.676 119.875 160.809 119.825C160.959 119.775 161.134 119.75 161.334 119.75H165.384C165.784 119.75 166.076 119.842 166.259 120.025C166.443 120.208 166.534 120.5 166.534 120.9V137.1C166.534 137.317 166.501 137.5 166.434 137.65C166.384 137.8 166.301 137.925 166.184 138.025L162.934 140.725C162.868 140.792 162.759 140.85 162.609 140.9C162.476 140.95 162.326 140.975 162.159 140.975H158.309C157.893 140.975 157.593 140.883 157.409 140.7C157.243 140.517 157.159 140.225 157.159 139.825V133.225L155.684 134.45C155.551 134.567 155.393 134.658 155.209 134.725C155.043 134.775 154.843 134.8 154.609 134.8H154.284V137.1C154.284 137.317 154.251 137.5 154.184 137.65C154.134 137.8 154.051 137.925 153.934 138.025ZM174.765 130.425V131.2H184.515V130.425C184.515 129.975 184.473 129.558 184.39 129.175C184.323 128.792 184.231 128.433 184.115 128.1L182.39 124.025C182.206 123.592 182.015 123.233 181.815 122.95C181.615 122.65 181.281 122.5 180.815 122.5H178.365C177.865 122.5 177.515 122.65 177.315 122.95C177.115 123.233 176.931 123.583 176.765 124L175.165 128.1C175.048 128.433 174.948 128.792 174.865 129.175C174.798 129.558 174.765 129.975 174.765 130.425ZM178.765 125.25C178.831 125.1 178.898 124.992 178.965 124.925C179.048 124.858 179.14 124.825 179.24 124.825H179.865C179.965 124.825 180.048 124.858 180.115 124.925C180.198 124.992 180.273 125.1 180.34 125.25L181.515 129.05H177.59L178.765 125.25ZM184.515 135.75V131.45H174.765V135.75H174.515V130.425C174.515 129.958 174.548 129.533 174.615 129.15C174.698 128.75 174.806 128.367 174.94 128L176.54 123.9C176.723 123.433 176.931 123.042 177.165 122.725C177.398 122.408 177.798 122.25 178.365 122.25H180.815C181.365 122.25 181.748 122.408 181.965 122.725C182.198 123.042 182.415 123.442 182.615 123.925L184.34 128C184.473 128.367 184.573 128.75 184.64 129.15C184.723 129.533 184.765 129.958 184.765 130.425V135.75H184.515ZM177.34 137.1V133.6H181.765V137.1C181.765 137.417 181.84 137.65 181.99 137.8C182.156 137.933 182.406 138 182.74 138H186.515C186.831 138 187.056 137.933 187.19 137.8C187.34 137.65 187.415 137.417 187.415 137.1V130.5C187.415 130 187.331 129.425 187.165 128.775C187.015 128.125 186.773 127.367 186.44 126.5L184.265 120.825C184.165 120.542 184.006 120.333 183.79 120.2C183.59 120.067 183.331 120 183.015 120H176.29C175.956 120 175.681 120.067 175.465 120.2C175.265 120.333 175.115 120.542 175.015 120.825L172.84 126.5C172.506 127.367 172.256 128.125 172.09 128.775C171.94 129.425 171.865 130 171.865 130.5V137.1C171.865 137.417 171.931 137.65 172.065 137.8C172.215 137.933 172.448 138 172.765 138H176.44C176.756 138 176.981 137.933 177.115 137.8C177.265 137.65 177.34 137.417 177.34 137.1ZM173.99 140.725C173.923 140.792 173.815 140.85 173.665 140.9C173.531 140.95 173.381 140.975 173.215 140.975H169.54C169.14 140.975 168.848 140.883 168.665 140.7C168.481 140.517 168.39 140.225 168.39 139.825V133.225C168.39 132.708 168.465 132.125 168.615 131.475C168.781 130.808 169.04 130.025 169.39 129.125L171.54 123.475C171.59 123.325 171.648 123.2 171.715 123.1C171.798 122.983 171.881 122.883 171.965 122.8L171.99 122.775L175.19 120.1C175.323 119.983 175.481 119.9 175.665 119.85C175.848 119.783 176.056 119.75 176.29 119.75H183.015C183.398 119.75 183.706 119.833 183.94 120C184.19 120.15 184.373 120.392 184.49 120.725L186.665 126.4C187.015 127.3 187.265 128.083 187.415 128.75C187.581 129.4 187.665 129.983 187.665 130.5V137.1C187.665 137.317 187.631 137.5 187.565 137.65C187.515 137.8 187.431 137.925 187.315 138.025L184.065 140.725C183.998 140.792 183.89 140.85 183.74 140.9C183.606 140.95 183.456 140.975 183.29 140.975H179.515C179.098 140.975 178.79 140.875 178.59 140.675C178.39 140.492 178.29 140.208 178.29 139.825V136.575H177.59V137.1C177.59 137.317 177.556 137.5 177.49 137.65C177.44 137.8 177.356 137.925 177.24 138.025L173.99 140.725Z" fill="black"/>
<line x1="210" y1="131.5" x2="250" y2="131.5" stroke="black"/>
<line y1="131.5" x2="40" y2="131.5" stroke="black"/>
</svg>
